<?xml version="1.0" encoding="utf-8" standalone="no"?>
<svg width="100%" height="100%" viewBox="0 0 1200 400" version="1.2" xmlns:xlink="http://www.w3.org/1999/xlink" xmlns:serif="http://www.serif.com/" baseProfile="tiny-ps" stroke-miterlimit="2" stroke-linejoin="round" fill-rule="evenodd" xmlns="http://www.w3.org/2000/svg">
  <title>HowILogo</title>
  <rect id="logo-baru" x="0" y="0" width="1200" height="400" fill="none" />
  <g>
    <g>
      <path d="M314.06,73.479c0,-9.282 -3.687,-18.185 -10.251,-24.748c-6.564,-6.564 -15.466,-10.252 -24.749,-10.252c-50.742,0 -144.2,0 -194.941,0c-9.283,0 -18.185,3.688 -24.749,10.252c-6.564,6.563 -10.251,15.466 -10.251,24.748c-0,61.735 -0,189.267 -0,251.001c-0,9.283 3.687,18.185 10.251,24.749c6.564,6.564 15.466,10.251 24.749,10.251c50.741,0 144.199,0 194.941,0c9.283,0 18.185,-3.687 24.749,-10.251c6.564,-6.564 10.251,-15.466 10.251,-24.749c0,-61.734 0,-189.266 0,-251.001Z" fill="#febd22" />
      <path d="M439.39,208.12c0,-29.437 -23.863,-53.3 -53.3,-53.3l-0.01,0c-29.437,0 -53.3,23.863 -53.3,53.3l0,128.407c0,13.807 11.193,25 25,25c17.055,0 39.555,0 56.61,0c13.807,0 25,-11.193 25,-25c0,-31.664 0,-87.075 0,-128.407Z" fill="#69a4d9" />
      <path d="M177.207,261.472c0,-0 1.894,-13.337 3.617,-25.476c1.583,-11.15 11.129,-19.436 22.391,-19.437c0,0 0.001,0 0.001,0c6.704,0 13.065,2.961 17.382,8.089c4.318,5.129 6.149,11.903 5.005,18.508c-3.829,22.114 -9.238,53.345 -12.975,74.922c-2.474,14.289 -14.873,24.725 -29.375,24.725l-0.002,-0c-12.85,-0 -24.251,-8.242 -28.28,-20.445c-4.235,-12.825 -8.897,-26.945 -8.897,-26.945c-0,-0 -4.665,14.126 -8.9,26.954c-4.028,12.199 -15.426,20.44 -28.274,20.443c-0,-0 -0.001,-0 -0.002,-0c-14.503,0.002 -26.904,-10.434 -29.379,-24.726c-3.737,-21.579 -9.146,-52.813 -12.975,-74.927c-1.144,-6.606 0.687,-13.379 5.004,-18.508c4.317,-5.129 10.679,-8.089 17.382,-8.089c0,-0 0.001,-0 0.001,-0c11.262,-0 20.808,8.287 22.391,19.438c1.723,12.138 3.616,25.474 3.616,25.474c-0,-0 9.998,-21.78 16.017,-34.892c2.71,-5.902 8.61,-9.686 15.105,-9.686c0,0 0.001,0 0.002,0c6.491,0 12.388,3.78 15.1,9.678c6.028,13.111 16.045,34.9 16.045,34.9Z" fill="#108883" />
      <circle cx="211.558" cy="124.559" r="31.81" fill="#febd22" />
      <path d="M147.579,152.662c-3.101,-6.902 -5.114,-14.437 -5.801,-22.403c-2.366,-27.436 11.639,-52.538 33.897,-65.652c31.149,-18.684 71.96,-10.336 93.116,19.878c18.112,25.867 16.237,59.791 -2.384,83.376l28.485,34.616c2.545,3.093 3.682,7.111 3.133,11.079c-0.548,3.969 -2.73,7.528 -6.019,9.815c-5.218,3.63 -11.242,7.821 -16.463,11.453c-3.293,2.291 -7.396,3.098 -11.311,2.226c-3.916,-0.872 -7.288,-3.343 -9.298,-6.815l-22.563,-38.965c-28.261,8.811 -60.17,-1.107 -78.045,-26.636c-2.685,-3.835 -4.931,-7.846 -6.747,-11.972Zm39.914,-7.297c-0.699,-0.81 -1.365,-1.664 -1.992,-2.56c-9.278,-13.25 -7.037,-31.142 4.621,-41.752c4.734,-4.213 10.782,-7.036 17.559,-7.748c17.23,-1.811 32.689,10.707 34.5,27.937c1.811,17.23 -10.708,32.689 -27.938,34.5c-10.452,1.099 -20.252,-3.075 -26.75,-10.377Z" fill="#108883" />
      <path d="M179.295,150.46l0.136,-51.801l-61.266,0.051c0,-0 -0.003,-8.525 -0.006,-18.071c-0.004,-14.332 -11.624,-25.948 -25.956,-25.948l-0.003,0c-14.331,0 -25.951,11.616 -25.956,25.948c-0.008,25.06 -0.021,62.802 -0.03,87.858c-0.002,6.876 2.728,13.472 7.59,18.335c4.861,4.863 11.456,7.595 18.332,7.595l0.002,0c6.882,0 13.482,-2.737 18.345,-7.607c4.862,-4.871 7.588,-11.476 7.577,-18.358c-0.016,-9.518 -0.031,-18.008 -0.031,-18.008l61.266,0.006Z" fill="#108883" />
      <circle cx="386.085" cy="91.778" r="53.305" fill="#69a4d9" />
    </g>
    <g transform="matrix(0.592534,0,0,0.592534,-1121.26,62.8844)">
      <text x="3080.53px" y="128.405px" fill="#333" font-size="108.333px" font-weight="300" font-family="'Lato-Light', 'Lato', sans-serif">"Selalu ada</text>
      <text x="3608.63px" y="128.405px" fill="#333" font-size="108.333px" font-weight="700" font-family="'Lato-Bold', 'Lato', sans-serif">car<tspan x="3759.7px " y="128.405px ">a</tspan></text>
      <text x="3816.41px" y="128.405px" fill="#333" font-size="108.333px" font-family="'Lato-Regular', 'Lato', sans-serif">,</text>
      <text x="2698.9px" y="261.739px" fill="#333" font-size="108.333px" font-weight="300" font-family="'Lato-Light', 'Lato', sans-serif">kita han<tspan x="3058.73px " y="261.739px ">y</tspan>a perlu</text>
      <text x="3446.67px" y="261.739px" fill="#333" font-size="108.333px" font-weight="700" font-family="'Lato-Bold', 'Lato', sans-serif">mencari</text>
      <text x="2832.8px" y="395.072px" fill="#333" font-size="108.333px" font-weight="300" font-family="'Lato-Light', 'Lato', sans-serif">dan</text>
      <text x="3024.17px" y="395.072px" fill="#333" font-size="108.333px" font-weight="700" font-family="'Lato-Bold', 'Lato', sans-serif">menemukann<tspan x="3683.27px 3741.06px 3793.66px " y="395.072px 395.072px 395.072px ">ya"</tspan></text>
    </g>
  </g>
</svg>